<svg xmlns="http://www.w3.org/2000/svg" viewBox="0 0 2553.42 1225"><defs><style>.cls-1{fill:#2c7fc2;}.cls-2{opacity:0.05;}.cls-3{fill:#fff;}</style></defs><g id="Capa_2" data-name="Capa 2"><g id="Layer_1" data-name="Layer 1"><rect class="cls-1" width="2553.42" height="1225"/><g class="cls-2"><rect class="cls-3" x="16.75" y="639.79" width="148.44" height="148.44"/><rect class="cls-3" x="214.37" y="639.79" width="148.44" height="148.44"/><rect class="cls-3" x="412" y="639.79" width="148.44" height="148.44"/><rect class="cls-3" x="609.62" y="639.79" width="148.44" height="148.44"/><rect class="cls-3" x="807.24" y="639.79" width="148.44" height="148.44"/><rect class="cls-3" x="1004.87" y="639.79" width="148.44" height="148.44"/><rect class="cls-3" x="1202.49" y="639.79" width="148.44" height="148.44"/><rect class="cls-3" x="1400.11" y="639.79" width="148.44" height="148.44"/><rect class="cls-3" x="1597.73" y="639.79" width="148.44" height="148.44"/><rect class="cls-3" x="1795.36" y="639.79" width="148.44" height="148.44"/><rect class="cls-3" x="1992.98" y="639.79" width="148.44" height="148.44"/><rect class="cls-3" x="2190.6" y="639.79" width="148.44" height="148.44"/><rect class="cls-3" x="2388.22" y="639.79" width="148.44" height="148.44"/><rect class="cls-3" x="16.75" y="832.98" width="148.44" height="148.44"/><rect class="cls-3" x="214.37" y="832.98" width="148.44" height="148.44"/><rect class="cls-3" x="412" y="832.98" width="148.44" height="148.44"/><rect class="cls-3" x="609.62" y="832.98" width="148.44" height="148.44"/><rect class="cls-3" x="807.24" y="832.98" width="148.44" height="148.44"/><rect class="cls-3" x="1004.87" y="832.98" width="148.44" height="148.44"/><rect class="cls-3" x="1202.49" y="832.98" width="148.44" height="148.44"/><rect class="cls-3" x="1400.11" y="832.98" width="148.44" height="148.44"/><rect class="cls-3" x="1597.73" y="832.98" width="148.44" height="148.44"/><rect class="cls-3" x="1795.36" y="832.98" width="148.44" height="148.44"/><rect class="cls-3" x="1992.98" y="832.98" width="148.44" height="148.44"/><rect class="cls-3" x="2190.6" y="832.98" width="148.44" height="148.44"/><rect class="cls-3" x="2388.22" y="832.98" width="148.44" height="148.44"/><rect class="cls-3" x="16.75" y="1027.26" width="148.44" height="148.44"/><rect class="cls-3" x="214.37" y="1027.26" width="148.44" height="148.44"/><rect class="cls-3" x="412" y="1027.26" width="148.44" height="148.44"/><rect class="cls-3" x="609.62" y="1027.26" width="148.44" height="148.44"/><rect class="cls-3" x="807.24" y="1027.26" width="148.44" height="148.44"/><rect class="cls-3" x="1004.87" y="1027.26" width="148.44" height="148.44"/><rect class="cls-3" x="1202.49" y="1027.26" width="148.44" height="148.44"/><rect class="cls-3" x="1400.11" y="1027.26" width="148.44" height="148.44"/><rect class="cls-3" x="1597.73" y="1027.26" width="148.44" height="148.44"/><rect class="cls-3" x="1795.36" y="1027.26" width="148.44" height="148.44"/><rect class="cls-3" x="1992.98" y="1027.26" width="148.44" height="148.44"/><rect class="cls-3" x="2190.6" y="1027.26" width="148.44" height="148.44"/><rect class="cls-3" x="2388.22" y="1027.26" width="148.44" height="148.44"/><rect class="cls-3" x="16.75" y="49.3" width="148.44" height="148.44"/><rect class="cls-3" x="214.37" y="49.3" width="148.44" height="148.44"/><rect class="cls-3" x="412" y="49.3" width="148.44" height="148.44"/><rect class="cls-3" x="609.62" y="49.3" width="148.44" height="148.44"/><rect class="cls-3" x="807.24" y="49.3" width="148.44" height="148.44"/><rect class="cls-3" x="1004.87" y="49.3" width="148.44" height="148.44"/><rect class="cls-3" x="1202.49" y="49.3" width="148.44" height="148.44"/><rect class="cls-3" x="1400.11" y="49.3" width="148.44" height="148.44"/><rect class="cls-3" x="1597.73" y="49.3" width="148.44" height="148.44"/><rect class="cls-3" x="1795.36" y="49.3" width="148.44" height="148.44"/><rect class="cls-3" x="1992.98" y="49.3" width="148.44" height="148.44"/><rect class="cls-3" x="2190.6" y="49.3" width="148.44" height="148.44"/><rect class="cls-3" x="2388.22" y="49.3" width="148.44" height="148.44"/><rect class="cls-3" x="16.75" y="243.58" width="148.44" height="148.44"/><rect class="cls-3" x="214.37" y="243.58" width="148.44" height="148.44"/><rect class="cls-3" x="412" y="243.58" width="148.44" height="148.44"/><rect class="cls-3" x="609.62" y="243.58" width="148.44" height="148.44"/><rect class="cls-3" x="807.24" y="243.58" width="148.44" height="148.44"/><rect class="cls-3" x="1004.87" y="243.58" width="148.44" height="148.44"/><rect class="cls-3" x="1202.49" y="243.58" width="148.44" height="148.44"/><rect class="cls-3" x="1400.11" y="243.58" width="148.44" height="148.44"/><rect class="cls-3" x="1597.73" y="243.58" width="148.44" height="148.44"/><rect class="cls-3" x="1795.36" y="243.58" width="148.44" height="148.44"/><rect class="cls-3" x="1992.98" y="243.58" width="148.44" height="148.44"/><rect class="cls-3" x="2190.6" y="243.58" width="148.44" height="148.44"/><rect class="cls-3" x="2388.22" y="243.58" width="148.44" height="148.44"/><rect class="cls-3" x="16.75" y="441.14" width="148.44" height="148.44"/><rect class="cls-3" x="214.37" y="441.14" width="148.44" height="148.44"/><rect class="cls-3" x="412" y="441.14" width="148.44" height="148.44"/><rect class="cls-3" x="609.62" y="441.14" width="148.44" height="148.44"/><rect class="cls-3" x="807.24" y="441.14" width="148.44" height="148.44"/><rect class="cls-3" x="1004.87" y="441.14" width="148.44" height="148.44"/><rect class="cls-3" x="1202.49" y="441.14" width="148.44" height="148.44"/><rect class="cls-3" x="1400.11" y="441.14" width="148.44" height="148.44"/><rect class="cls-3" x="1597.73" y="441.14" width="148.44" height="148.44"/><rect class="cls-3" x="1795.36" y="441.14" width="148.44" height="148.44"/><rect class="cls-3" x="1992.98" y="441.14" width="148.44" height="148.44"/><rect class="cls-3" x="2190.6" y="441.14" width="148.44" height="148.44"/><rect class="cls-3" x="2388.22" y="441.14" width="148.44" height="148.44"/></g></g></g></svg>