<svg xmlns="http://www.w3.org/2000/svg" viewBox="0 0 29.44 35.33"><defs><style>.cls-1{fill:#fff;}</style></defs><g id="Capa_2" data-name="Capa 2"><g id="Layer_1" data-name="Layer 1"><path class="cls-1" d="M28,5.89H23.4A7.36,7.36,0,0,0,16.19,0H13.25A7.37,7.37,0,0,0,6,5.89H1.47a1.47,1.47,0,0,0,0,2.94H2.94V28a7.38,7.38,0,0,0,7.36,7.36h8.84A7.36,7.36,0,0,0,26.49,28V8.83H28a1.47,1.47,0,1,0,0-2.94ZM13.25,25a1.48,1.48,0,0,1-2.95,0V16.19a1.48,1.48,0,0,1,2.95,0V25Zm5.89,0a1.48,1.48,0,0,1-2.95,0V16.19a1.48,1.48,0,0,1,2.95,0ZM9.08,5.89a4.44,4.44,0,0,1,4.17-2.95h2.94a4.44,4.44,0,0,1,4.17,2.95Z"/></g></g></svg>