<svg xmlns="http://www.w3.org/2000/svg" viewBox="0 0 28.49 31.08"><defs><style>.cls-1{fill:#fff;}</style></defs><g id="Capa_2" data-name="Capa 2"><g id="Layer_1" data-name="Layer 1"><path class="cls-1" d="M20.72,9.06a1.3,1.3,0,0,1-1.3,1.3H9.06a1.3,1.3,0,0,1,0-2.59H19.42A1.3,1.3,0,0,1,20.72,9.06Zm7.77-2.59V24.6A6.49,6.49,0,0,1,22,31.08H6.47A6.48,6.48,0,0,1,0,24.6V6.47A6.47,6.47,0,0,1,6.47,0H22A6.48,6.48,0,0,1,28.49,6.47ZM7.77,23.31a1.3,1.3,0,1,0-1.3,1.29A1.3,1.3,0,0,0,7.77,23.31Zm0-5.18a1.3,1.3,0,1,0-1.3,1.29A1.3,1.3,0,0,0,7.77,18.13ZM13,23.31a1.3,1.3,0,1,0-1.3,1.29A1.3,1.3,0,0,0,13,23.31Zm0-5.18a1.3,1.3,0,1,0-1.3,1.29A1.3,1.3,0,0,0,13,18.13Zm10.36,5.18A1.3,1.3,0,0,0,22,22H16.83a1.3,1.3,0,0,0,0,2.59H22A1.3,1.3,0,0,0,23.31,23.31Zm-6.48-3.89a1.3,1.3,0,1,0-1.29-1.29A1.3,1.3,0,0,0,16.83,19.42Zm6.48-1.29A1.3,1.3,0,1,0,22,19.42,1.3,1.3,0,0,0,23.31,18.13Zm0-9.07a3.89,3.89,0,0,0-3.89-3.88H9.06a3.89,3.89,0,0,0,0,7.77H19.42A3.89,3.89,0,0,0,23.31,9.06Z"/></g></g></svg>