<svg xmlns="http://www.w3.org/2000/svg" viewBox="0 0 46.01 42.17"><defs><style>.cls-1{fill:#fff;}</style></defs><g id="Capa_2" data-name="Capa 2"><g id="Layer_1" data-name="Layer 1"><path class="cls-1" d="M46,17.25a9.6,9.6,0,0,0-9.59-9.58H32.59V5.75A5.75,5.75,0,0,0,26.84,0H5.75A5.74,5.74,0,0,0,0,5.75V34.51H3.91a7.45,7.45,0,0,0-.08,1,6.71,6.71,0,0,0,13.42,0,6,6,0,0,0-.08-1H28.83a6,6,0,0,0-.07,1,6.71,6.71,0,1,0,13.41,0,7.45,7.45,0,0,0-.07-1H46ZM10.54,38.34a2.88,2.88,0,0,1-2.87-2.88,2.59,2.59,0,0,1,.18-1h5.39a2.59,2.59,0,0,1,.18,1A2.88,2.88,0,0,1,10.54,38.34Zm18.22-7.67H3.83V5.75A1.92,1.92,0,0,1,5.75,3.83H26.84a1.92,1.92,0,0,1,1.92,1.92ZM32.59,11.5h3.83a5.75,5.75,0,0,1,5.75,5.75v1.92H32.59Zm2.87,26.84a2.88,2.88,0,0,1-2.87-2.88,2.59,2.59,0,0,1,.18-1h5.39a2.59,2.59,0,0,1,.18,1A2.88,2.88,0,0,1,35.46,38.34Z"/></g></g></svg>