<svg xmlns="http://www.w3.org/2000/svg" viewBox="0 0 134.27 161.12"><defs><style>.cls-1{fill:#fff;}</style></defs><g id="Capa_2" data-name="Capa 2"><g id="Layer_1" data-name="Layer 1"><path class="cls-1" d="M101,0V22.62A12.43,12.43,0,0,0,113.42,35h20.85V33.57A33.62,33.62,0,0,0,101,0Z"/><path class="cls-1" d="M93.14,22.62V0H33.57A33.51,33.51,0,0,0,9.29,10.41l0,.05A33.48,33.48,0,0,0,0,33.57v94a33.6,33.6,0,0,0,33.57,33.56H100.7c.6,0,1.19,0,1.78,0,.81-.05,1.61-.12,2.4-.22a33.67,33.67,0,0,0,9.34-2.58l1-.48a32.38,32.38,0,0,0,3.11-1.72c.19-.11.37-.23.55-.35a33.15,33.15,0,0,0,4.89-3.85l0,0a33.48,33.48,0,0,0,10.41-24.27V42.9H113.42A20.3,20.3,0,0,1,93.14,22.62Zm-61.27,35a4.56,4.56,0,0,1,6.43-.36l4.8,4.29a1.74,1.74,0,0,0,1.26.62,1.52,1.52,0,0,0,1.07-.44l11-10.43a4.55,4.55,0,0,1,6.27,6.58L51.78,68.24a10.41,10.41,0,0,1-7.42,3,10.53,10.53,0,0,1-7.5-3.1l-4.63-4.11A4.56,4.56,0,0,1,31.87,57.63Zm30.78,48.76L51.78,116.74a10.61,10.61,0,0,1-14.93-.07l-4.62-4.11a4.55,4.55,0,0,1,6.07-6.79l4.8,4.29a1.74,1.74,0,0,0,1.26.62,1.52,1.52,0,0,0,1.07-.44l11-10.43a4.55,4.55,0,0,1,6.27,6.58Zm0-24.25L51.78,92.49a10.61,10.61,0,0,1-14.92-.07l-4.81-4.81a4.55,4.55,0,0,1,6.43-6.43L43.29,86a1.51,1.51,0,0,0,2.14,0l11-10.43a4.55,4.55,0,0,1,6.27,6.58Zm36.27,31.57H74.67a4.55,4.55,0,1,1,0-9.09H98.92a4.55,4.55,0,1,1,0,9.09Zm0-24.25H74.67a4.55,4.55,0,1,1,0-9.09H98.92a4.55,4.55,0,1,1,0,9.09Zm0-24.25H74.67a4.55,4.55,0,1,1,0-9.09H98.92a4.55,4.55,0,1,1,0,9.09Z"/></g></g></svg>