<svg xmlns="http://www.w3.org/2000/svg" viewBox="0 0 130.34 130.37"><defs><style>.cls-1{fill:#d6ae38;}.cls-2{fill:#fff;}</style></defs><g id="Capa_2" data-name="Capa 2"><g id="Layer_1" data-name="Layer 1"><path class="cls-1" d="M118.61,48.49a6.76,6.76,0,0,1-4.1-8.65c.08-.22.17-.43.27-.64a17.72,17.72,0,0,0-23.6-23.61,6.78,6.78,0,0,1-9-3.2,5.59,5.59,0,0,1-.26-.63,17.72,17.72,0,0,0-33.37,0,6.78,6.78,0,0,1-8.66,4.1c-.21-.08-.43-.17-.64-.27A17.71,17.71,0,0,0,15.58,39.2a6.78,6.78,0,0,1-3.18,9c-.21.1-.43.19-.65.27a17.72,17.72,0,0,0,0,33.37,6.78,6.78,0,0,1,4.13,8.64,6.21,6.21,0,0,1-.28.66,17.71,17.71,0,0,0,23.58,23.61,6.77,6.77,0,0,1,9,3.19,4.51,4.51,0,0,1,.26.64,17.72,17.72,0,0,0,33.37,0,6.78,6.78,0,0,1,8.66-4.1c.22.08.43.17.64.27a17.72,17.72,0,0,0,23.61-23.6,6.78,6.78,0,0,1,3.19-9,5,5,0,0,1,.64-.26,17.72,17.72,0,0,0,0-33.37Z"/><path class="cls-2" d="M50,61.37A11.34,11.34,0,1,1,61.36,50,11.35,11.35,0,0,1,50,61.37Zm0-18A6.67,6.67,0,1,0,56.7,50,6.67,6.67,0,0,0,50,43.37Z"/><path class="cls-2" d="M41,92.37a2.67,2.67,0,0,1-1.88-4.56L87.81,39.15a2.67,2.67,0,0,1,3.77,3.77L42.92,91.59A2.67,2.67,0,0,1,41,92.37Z"/><path class="cls-2" d="M80.36,91.7A11.34,11.34,0,1,1,91.7,80.37,11.35,11.35,0,0,1,80.36,91.7Zm0-18A6.67,6.67,0,1,0,87,80.37,6.67,6.67,0,0,0,80.36,73.7Z"/></g></g></svg>