<svg xmlns="http://www.w3.org/2000/svg" viewBox="0 0 124.85 83.23"><defs><style>.cls-1{fill:#2c7fc2;}</style></defs><g id="Capa_2" data-name="Capa 2"><g id="Layer_1" data-name="Layer 1"><path class="cls-1" d="M51.6,29.71a5.12,5.12,0,0,0,3.34,6.42l4.17,1.14V26.14H56.48A5.11,5.11,0,0,0,51.6,29.71Z"/><path class="cls-1" d="M69.9,47.1,65.74,46V57.1h2.62a5.12,5.12,0,0,0,1.54-10Z"/><path class="cls-1" d="M103.4.47a17.9,17.9,0,0,0-.4,3.69,17.7,17.7,0,0,0,17.69,17.69,17.9,17.9,0,0,0,3.69-.4A26,26,0,0,0,103.4.47Z"/><path class="cls-1" d="M.47,21.45a17.9,17.9,0,0,0,3.69.4A17.7,17.7,0,0,0,21.85,4.16a18.08,18.08,0,0,0-.4-3.7A26,26,0,0,0,.47,21.45Z"/><path class="cls-1" d="M103,79.07a18.08,18.08,0,0,0,.4,3.7,26,26,0,0,0,21-21,17.24,17.24,0,0,0-3.69-.41A17.71,17.71,0,0,0,103,79.07Z"/><path class="cls-1" d="M120.69,55.14a23.85,23.85,0,0,1,4.16.42V27.67a23.85,23.85,0,0,1-4.16.42A24,24,0,0,1,96.76,4.16,23.85,23.85,0,0,1,97.18,0H27.67a23.85,23.85,0,0,1,.42,4.16A24,24,0,0,1,4.16,28.09,23.85,23.85,0,0,1,0,27.67V55.56a23.85,23.85,0,0,1,4.16-.42A24,24,0,0,1,28.09,79.07a23.65,23.65,0,0,1-.42,4.16H97.18a23.65,23.65,0,0,1-.42-4.16A24,24,0,0,1,120.69,55.14ZM68.37,63.73H65.74v1.11a3.32,3.32,0,0,1-6.63,0V63.73H56.48A11.77,11.77,0,0,1,44.73,52V50.46a3.32,3.32,0,1,1,6.64,0V52a5.12,5.12,0,0,0,5.11,5.12h2.63v-13l-6-1.65a11.75,11.75,0,0,1,3.41-23h2.63V18.4a3.32,3.32,0,1,1,6.63,0v1.1h2.63A11.77,11.77,0,0,1,80.12,31.25v1.52a3.32,3.32,0,0,1-6.64,0V31.25a5.11,5.11,0,0,0-5.11-5.11H65.74v13l6,1.64a11.75,11.75,0,0,1-3.4,23Z"/><path class="cls-1" d="M21.45,82.77a18.08,18.08,0,0,0,.4-3.7A17.71,17.71,0,0,0,4.16,61.38a17.24,17.24,0,0,0-3.69.41A26,26,0,0,0,21.45,82.77Z"/></g></g></svg>