<svg xmlns="http://www.w3.org/2000/svg" viewBox="0 0 170.23 174.51"><defs><style>.cls-1{fill:#fff;}</style></defs><g id="Capa_2" data-name="Capa 2"><g id="Layer_1" data-name="Layer 1"><path class="cls-1" d="M84.77,51.72a5.5,5.5,0,0,0,3.59,6.89l4.47,1.22v-12H90A5.51,5.51,0,0,0,84.77,51.72Z"/><path class="cls-1" d="M104.43,70.39,100,69.17v12h2.8a5.49,5.49,0,0,0,1.67-10.73Z"/><path class="cls-1" d="M165.15,29.65a21.78,21.78,0,0,0-16.74-7.84H30.85l-.31-2.55A21.81,21.81,0,0,0,8.89,0H7.27a7.27,7.27,0,0,0,0,14.54H8.89A7.28,7.28,0,0,1,16.11,21l10,85.08a36.36,36.36,0,0,0,36.11,32.12h75.94a7.28,7.28,0,0,0,0-14.55H62.22a21.8,21.8,0,0,1-20.5-14.54h86.67a36.35,36.35,0,0,0,35.78-29.91l5.71-31.66A21.75,21.75,0,0,0,165.15,29.65Zm-62.37,58.6H100v1.19a3.57,3.57,0,0,1-7.13,0V88.25H90A12.64,12.64,0,0,1,77.39,75.63V74a3.57,3.57,0,0,1,7.13,0v1.63A5.49,5.49,0,0,0,90,81.12h2.82V67.22l-6.48-1.77A12.62,12.62,0,0,1,90,40.75h2.82V39.56a3.57,3.57,0,0,1,7.13,0v1.19h2.82a12.63,12.63,0,0,1,12.61,12.62V55a3.56,3.56,0,0,1-7.12,0V53.37a5.51,5.51,0,0,0-5.49-5.5H100V61.78l6.48,1.77a12.62,12.62,0,0,1-3.66,24.7Z"/><circle class="cls-1" cx="50.9" cy="159.97" r="14.54"/><circle class="cls-1" cx="123.61" cy="159.97" r="14.54" transform="translate(-24.03 21.87) rotate(-9.22)"/></g></g></svg>