<svg xmlns="http://www.w3.org/2000/svg" viewBox="0 0 167.88 153.89"><defs><style>.cls-1{fill:#fff;}</style></defs><g id="Capa_2" data-name="Capa 2"><g id="Layer_1" data-name="Layer 1"><path class="cls-1" d="M167.88,63a35,35,0,0,0-35-35h-14V21a21,21,0,0,0-21-21H21A21,21,0,0,0,0,21V125.91H14.28a24.18,24.18,0,0,0-.29,3.5,24.49,24.49,0,0,0,49,0,25.68,25.68,0,0,0-.29-3.5h42.54a24.17,24.17,0,0,0-.28,3.5,24.48,24.48,0,0,0,49,0,24.18,24.18,0,0,0-.29-3.5h14.28ZM38.47,139.9A10.49,10.49,0,0,1,28,129.41a9.74,9.74,0,0,1,.65-3.5H48.31a10,10,0,0,1,.66,3.5A10.5,10.5,0,0,1,38.47,139.9Zm66.46-28H14V21a7,7,0,0,1,7-7H97.93a7,7,0,0,1,7,7Zm14-69.95h14a21,21,0,0,1,21,21v7h-35Zm10.49,97.93a10.49,10.49,0,0,1-10.49-10.49,9.74,9.74,0,0,1,.65-3.5h19.68a9.74,9.74,0,0,1,.65,3.5A10.49,10.49,0,0,1,129.41,139.9Z"/><path class="cls-1" d="M67.25,63l-6.48-1.76V47.34h2.82a5.49,5.49,0,0,1,5.49,5.49v1.63a3.57,3.57,0,1,0,7.13,0V52.83A12.64,12.64,0,0,0,63.59,40.21H60.77V39a3.56,3.56,0,1,0-7.12,0v1.18H50.83a12.62,12.62,0,0,0-3.66,24.7l6.48,1.78v13.9H50.83a5.51,5.51,0,0,1-5.5-5.49V73.46a3.56,3.56,0,0,0-7.12,0V75.1A12.63,12.63,0,0,0,50.83,87.71h2.82V88.9a3.56,3.56,0,1,0,7.12,0V87.71h2.82A12.62,12.62,0,0,0,67.25,63ZM53.65,59.3l-4.47-1.22a5.5,5.5,0,0,1,1.65-10.74h2.82ZM68.83,76.74a5.49,5.49,0,0,1-5.25,3.85H60.77v-12l4.47,1.22A5.49,5.49,0,0,1,68.83,76.74Z"/></g></g></svg>