<svg xmlns="http://www.w3.org/2000/svg" viewBox="0 0 134.27 161.12"><defs><style>.cls-1{fill:#fff;}</style></defs><g id="Capa_2" data-name="Capa 2"><g id="Layer_1" data-name="Layer 1"><path class="cls-1" d="M101,0V22.62A12.43,12.43,0,0,0,113.42,35h20.85V33.57A33.62,33.62,0,0,0,101,0Z"/><path class="cls-1" d="M93.14,22.62V0H33.57A33.51,33.51,0,0,0,9.29,10.41l0,.05A33.48,33.48,0,0,0,0,33.57v94a33.6,33.6,0,0,0,33.57,33.56H100.7c.6,0,1.19,0,1.78,0,.81-.05,1.61-.12,2.4-.22a33.67,33.67,0,0,0,9.34-2.58l1-.48a32.38,32.38,0,0,0,3.11-1.72c.19-.11.37-.23.55-.35a33.15,33.15,0,0,0,4.89-3.85l0,0a33.48,33.48,0,0,0,10.41-24.27V42.9H113.42A20.3,20.3,0,0,1,93.14,22.62Zm14.26,97.09a5.48,5.48,0,0,1-8.76,6.57l-6.57-8.76-6.57,8.76a5.48,5.48,0,1,1-8.76-6.57l8.48-11.31L76.74,97.08h0a5.47,5.47,0,1,1,8.76-6.56l6.57,8.75,6.57-8.75a5.47,5.47,0,1,1,8.76,6.56L98.91,108.4ZM103,66.43H79.26A9.17,9.17,0,0,0,70.5,73L55.85,122.72a7.93,7.93,0,0,1-7.58,5.75A8.19,8.19,0,0,1,40.64,123L32.21,98.59a10.71,10.71,0,0,0-7.13-6.75,5.48,5.48,0,0,1,2.58-10.65A21.7,21.7,0,0,1,42.53,94.94L48,110.74,60,69.89A20.17,20.17,0,0,1,79.26,55.48H103a5.48,5.48,0,0,1,0,11Z"/></g></g></svg>