<svg xmlns="http://www.w3.org/2000/svg" viewBox="0 0 44 44"><defs><style>.cls-1{fill:#fff;}</style></defs><g id="Capa_2" data-name="Capa 2"><g id="Layer_1" data-name="Layer 1"><path class="cls-1" d="M34.83,7.33A7.33,7.33,0,0,0,27.5,0h-11A7.33,7.33,0,0,0,9.17,7.33V9.17H34.83Z"/><rect class="cls-1" x="9.17" y="27.5" width="25.67" height="16.5" rx="5.5"/><path class="cls-1" d="M34.83,12.83H9.17A9.19,9.19,0,0,0,0,22v7.33a9.15,9.15,0,0,0,5.5,8.39V33a9.19,9.19,0,0,1,9.17-9.17H29.33A9.19,9.19,0,0,1,38.5,33v4.72A9.15,9.15,0,0,0,44,29.33V22A9.19,9.19,0,0,0,34.83,12.83ZM33,20.17H29.33a1.84,1.84,0,0,1,0-3.67H33a1.84,1.84,0,0,1,0,3.67Z"/></g></g></svg>