<svg xmlns="http://www.w3.org/2000/svg" viewBox="0 0 148.15 161.62"><defs><style>.cls-1{fill:#fff;}</style></defs><g id="Capa_2" data-name="Capa 2"><g id="Layer_1" data-name="Layer 1"><path class="cls-1" d="M74.07,60.61a6.74,6.74,0,1,1,6.74,6.73A6.74,6.74,0,0,1,74.07,60.61Zm74.08-26.94V128a33.72,33.72,0,0,1-33.67,33.67H47.14a33.68,33.68,0,0,1-30.82-20.21H6.73a6.73,6.73,0,0,1,0-13.46h6.74V114.48H6.73a6.74,6.74,0,0,1,0-13.47h6.74V87.54H6.73a6.74,6.74,0,0,1,0-13.47h6.74V60.61H6.73a6.74,6.74,0,0,1,0-13.47h6.74V33.67H6.73a6.74,6.74,0,0,1,0-13.47h9.59A33.69,33.69,0,0,1,47.14,0h67.34A33.7,33.7,0,0,1,148.15,33.67ZM60.61,60.61A20.2,20.2,0,1,0,80.81,40.4,20.2,20.2,0,0,0,60.61,60.61Zm53.87,60.6c-1.42-44.5-65.93-44.48-67.34,0a6.74,6.74,0,1,0,13.47,0,20.2,20.2,0,0,1,40.4,0,6.74,6.74,0,1,0,13.47,0Z"/></g></g></svg>