<svg xmlns="http://www.w3.org/2000/svg" viewBox="0 0 31.41 20.94"><defs><style>.cls-1{fill:#fff;}</style></defs><g id="Capa_2" data-name="Capa 2"><g id="Layer_1" data-name="Layer 1"><path class="cls-1" d="M13,7.48a1.29,1.29,0,0,0,.84,1.61l1,.29V6.57h-.66A1.31,1.31,0,0,0,13,7.48Z"/><path class="cls-1" d="M17.59,11.85l-1.05-.29v2.8h.66a1.27,1.27,0,0,0,1.23-.9A1.29,1.29,0,0,0,17.59,11.85Z"/><path class="cls-1" d="M26,.12a4.73,4.73,0,0,0-.1.93A4.46,4.46,0,0,0,30.36,5.5a4.73,4.73,0,0,0,.93-.1A6.53,6.53,0,0,0,26,.12Z"/><path class="cls-1" d="M.12,5.4a4.73,4.73,0,0,0,.93.1A4.46,4.46,0,0,0,5.5,1.05,4.73,4.73,0,0,0,5.4.12,6.53,6.53,0,0,0,.12,5.4Z"/><path class="cls-1" d="M25.91,19.89a4.73,4.73,0,0,0,.1.93,6.53,6.53,0,0,0,5.28-5.28,4.73,4.73,0,0,0-.93-.1A4.46,4.46,0,0,0,25.91,19.89Z"/><path class="cls-1" d="M30.36,13.87a6,6,0,0,1,1.05.11V7a5.93,5.93,0,0,1-7.07-5.91,6,6,0,0,1,.11-1H7a6,6,0,0,1,.11,1.05,6,6,0,0,1-6,6A6,6,0,0,1,0,7v7a6,6,0,0,1,1.05-.11A5.93,5.93,0,0,1,7,20.94H24.45a5.93,5.93,0,0,1,5.91-7.07ZM17.2,16h-.66v.28a.84.84,0,1,1-1.67,0V16h-.66a3,3,0,0,1-3-3v-.39a.84.84,0,0,1,.84-.83.83.83,0,0,1,.83.83v.39a1.28,1.28,0,0,0,1.29,1.28h.66V11.11l-1.52-.42a3,3,0,0,1,.86-5.78h.66V4.63a.84.84,0,1,1,1.67,0v.28h.66a3,3,0,0,1,3,3v.38a.85.85,0,0,1-.84.84.84.84,0,0,1-.83-.84V7.86A1.3,1.3,0,0,0,17.2,6.57h-.66V9.83l1.52.42A3,3,0,0,1,17.2,16Z"/><path class="cls-1" d="M5.4,20.82a4.73,4.73,0,0,0,.1-.93,4.46,4.46,0,0,0-4.45-4.45,4.73,4.73,0,0,0-.93.1A6.53,6.53,0,0,0,5.4,20.82Z"/></g></g></svg>