<svg xmlns="http://www.w3.org/2000/svg" viewBox="0 0 31.53 31.53"><defs><style>.cls-1{fill:#2c7fc2;}</style></defs><g id="Capa_2" data-name="Capa 2"><g id="Layer_1" data-name="Layer 1"><path class="cls-1" d="M25,22.33A7.81,7.81,0,0,1,21,21.27a7.81,7.81,0,0,1-3.94,1.06H14.45a7.82,7.82,0,0,1-3.94-1.07,7.8,7.8,0,0,1-3.94,1.07H5.26a7.92,7.92,0,0,1-3.95-1.06v6.32a3.94,3.94,0,0,0,4,3.94h21a3.94,3.94,0,0,0,3.94-3.94V21.27a7.81,7.81,0,0,1-3.94,1.06Z"/><path class="cls-1" d="M22.33,0V7.88H19.71V0H11.82V7.88H9.2V0H2.89L0,12.85l0,1.6a5.26,5.26,0,0,0,5.26,5.26H6.57a5.25,5.25,0,0,0,3.94-1.82,5.25,5.25,0,0,0,3.94,1.82h2.63A5.23,5.23,0,0,0,21,17.92,5.23,5.23,0,0,0,25,19.71h1.32a5.26,5.26,0,0,0,5.25-5.26V13.14L28.64,0Z"/></g></g></svg>