<svg xmlns="http://www.w3.org/2000/svg" viewBox="0 0 28.11 30.34"><defs><style>.cls-1{fill:#fff;}</style></defs><g id="Capa_2" data-name="Capa 2"><g id="Layer_1" data-name="Layer 1"><path class="cls-1" d="M17.57,14.68a6.84,6.84,0,0,1-2.24.81V30.34a6.2,6.2,0,0,0,1.91-.71l7.68-4.44a6.4,6.4,0,0,0,3.19-5.51V10.8a6.51,6.51,0,0,0-.34-2Z"/><path class="cls-1" d="M11.81,12.47a4.5,4.5,0,0,0,4.49,0L26.5,6.6a6.42,6.42,0,0,0-1.58-1.31L17.24.85a6.41,6.41,0,0,0-6.37,0L3.19,5.29A6,6,0,0,0,1.66,6.54Z"/><path class="cls-1" d="M12.78,15.49a7,7,0,0,1-2.25-.81L.36,8.73A6.39,6.39,0,0,0,0,10.8v8.88a6.38,6.38,0,0,0,3.19,5.51l7.68,4.44a6.2,6.2,0,0,0,1.91.71Z"/></g></g></svg>