<svg xmlns="http://www.w3.org/2000/svg" viewBox="0 0 32 32"><defs><style>.cls-1{fill:#fff;}</style></defs><g id="Capa_2" data-name="Capa 2"><g id="Layer_1" data-name="Layer 1"><circle class="cls-1" cx="16" cy="18.67" r="2.67"/><path class="cls-1" d="M30.05,5.5,26.5,2A6.17,6.17,0,0,0,25.33,1V4a6.67,6.67,0,0,1-6.66,6.67H13.33A6.67,6.67,0,0,1,6.67,4V0A6.67,6.67,0,0,0,0,6.67V25.33A6.67,6.67,0,0,0,6.67,32H25.33A6.67,6.67,0,0,0,32,25.33V10.21A6.59,6.59,0,0,0,30.05,5.5ZM16,24a5.34,5.34,0,1,1,5.33-5.33A5.33,5.33,0,0,1,16,24Z"/><path class="cls-1" d="M13.33,8h5.34a4,4,0,0,0,4-4V.09A6.56,6.56,0,0,0,21.79,0H9.33V4A4,4,0,0,0,13.33,8Z"/></g></g></svg>