<svg xmlns="http://www.w3.org/2000/svg" viewBox="0 0 30.59 30.57"><defs><style>.cls-1{fill:#fff;}</style></defs><g id="Capa_2" data-name="Capa 2"><g id="Layer_1" data-name="Layer 1"><path class="cls-1" d="M15.29,21.21a3.12,3.12,0,0,0-3.12,3.12v6.24h6.24V24.33A3.12,3.12,0,0,0,15.29,21.21Z"/><path class="cls-1" d="M21.67,22.92v7.65h5.09a3.82,3.82,0,0,0,3.83-3.82V15.12a2.54,2.54,0,0,0-.72-1.77L19,1.64a5.09,5.09,0,0,0-7.2-.29,4,4,0,0,0-.29.29L.74,13.34A2.59,2.59,0,0,0,0,15.14V26.75a3.82,3.82,0,0,0,3.82,3.82h5.1V22.92a6.38,6.38,0,1,1,12.75,0Z"/></g></g></svg>