<svg xmlns="http://www.w3.org/2000/svg" viewBox="0 0 167.88 153.89"><defs><style>.cls-1{fill:#fff;}</style></defs><g id="Capa_2" data-name="Capa 2"><g id="Layer_1" data-name="Layer 1"><path class="cls-1" d="M167.88,63a35,35,0,0,0-35-35h-14V21a21,21,0,0,0-21-21H21A21,21,0,0,0,0,21V125.91H14.28a24.18,24.18,0,0,0-.29,3.5,24.49,24.49,0,0,0,49,0,25.68,25.68,0,0,0-.29-3.5h42.54a24.17,24.17,0,0,0-.28,3.5,24.48,24.48,0,0,0,49,0,24.18,24.18,0,0,0-.29-3.5h14.28ZM38.47,139.9A10.49,10.49,0,0,1,28,129.41a9.74,9.74,0,0,1,.65-3.5H48.31a10,10,0,0,1,.66,3.5A10.5,10.5,0,0,1,38.47,139.9Zm66.46-28H14V21a7,7,0,0,1,7-7H97.93a7,7,0,0,1,7,7Zm14-69.95h14a21,21,0,0,1,21,21v7h-35Zm10.49,97.93a10.49,10.49,0,0,1-10.49-10.49,9.74,9.74,0,0,1,.65-3.5h19.68a9.74,9.74,0,0,1,.65,3.5A10.49,10.49,0,0,1,129.41,139.9Z"/></g></g></svg>