<svg xmlns="http://www.w3.org/2000/svg" viewBox="0 0 125.26 121.42"><defs><style>.cls-1{fill:#2c7fc2;}</style></defs><g id="Capa_2" data-name="Capa 2"><g id="Layer_1" data-name="Layer 1"><path class="cls-1" d="M123.51,43.9a1.74,1.74,0,0,0,.79-3.3L48,1.75A15.63,15.63,0,0,0,37.78.29C26,2.62,0,11.26,0,42.16H0A1.74,1.74,0,0,0,1.75,43.9Z"/><path class="cls-1" d="M115.13,84.43A10.13,10.13,0,0,1,125.24,74.3V56.74H0V110a11.39,11.39,0,0,0,11.39,11.38h28.1a13.84,13.84,0,0,1,27.67,0h46.7A11.38,11.38,0,0,0,125.24,110V94.56A10.13,10.13,0,0,1,115.13,84.43Zm-81,16.21A16.21,16.21,0,1,1,50.29,84.43,16.21,16.21,0,0,1,34.08,100.64ZM76,104a9.46,9.46,0,1,1,9.46-9.46A9.45,9.45,0,0,1,76,104Z"/></g></g></svg>