<svg xmlns="http://www.w3.org/2000/svg" viewBox="0 0 165.85 160.76"><defs><style>.cls-1{fill:#fff;}</style></defs><g id="Capa_2" data-name="Capa 2"><g id="Layer_1" data-name="Layer 1"><path class="cls-1" d="M91.33,117.12l-4.47-1.22v11.95h2.81a5.49,5.49,0,0,0,1.66-10.73Z"/><path class="cls-1" d="M71.68,98.45a5.49,5.49,0,0,0,3.58,6.89l4.47,1.22v-12H76.92A5.49,5.49,0,0,0,71.68,98.45Z"/><path class="cls-1" d="M2.32,58.13h161.2a2.32,2.32,0,0,0,1.06-4.38L63.49,2.31A20.72,20.72,0,0,0,50,.39C34.4,3.48,0,14.91,0,55.81A2.32,2.32,0,0,0,2.32,58.13Z"/><path class="cls-1" d="M0,145.69a15.07,15.07,0,0,0,15.07,15.07H52.28a18.33,18.33,0,0,1,36.65,0h61.82a15.07,15.07,0,0,0,15.07-15.07V125.2a13.42,13.42,0,0,1,0-26.83V75.12H0ZM76.92,87.48h2.81V86.29a3.57,3.57,0,0,1,7.13,0v1.19h2.82A12.64,12.64,0,0,1,102.3,100.1v1.63a3.57,3.57,0,0,1-7.13,0V100.1a5.5,5.5,0,0,0-5.49-5.5H86.86v13.91l6.48,1.77A12.62,12.62,0,0,1,89.68,135H86.86v1.19a3.57,3.57,0,0,1-7.13,0V135H76.92A12.63,12.63,0,0,1,64.3,122.36v-1.63a3.56,3.56,0,0,1,7.12,0v1.63a5.5,5.5,0,0,0,5.5,5.49h2.81V114l-6.47-1.77a12.62,12.62,0,0,1,3.66-24.7Z"/></g></g></svg>