<svg xmlns="http://www.w3.org/2000/svg" viewBox="0 0 165.85 160.76"><defs><style>.cls-1{fill:#fff;}.cls-2{fill:none;}</style></defs><g id="Capa_2" data-name="Capa 2"><g id="Layer_1" data-name="Layer 1"><path class="cls-1" d="M163.52,58.13a2.32,2.32,0,0,0,1.06-4.38L63.49,2.31A20.72,20.72,0,0,0,50,.39C34.4,3.48,0,14.91,0,55.81H0a2.32,2.32,0,0,0,2.32,2.32Z"/><circle class="cls-2" cx="45.12" cy="111.79" r="21.46"/><circle class="cls-2" cx="100.56" cy="125.2" r="12.52"/><path class="cls-1" d="M152.43,111.79a13.43,13.43,0,0,1,13.39-13.42V75.12H0v70.57a15.07,15.07,0,0,0,15.07,15.07H52.28a18.33,18.33,0,0,1,36.65,0h61.82a15.07,15.07,0,0,0,15.07-15.07V125.2A13.41,13.41,0,0,1,152.43,111.79ZM45.12,133.25a21.47,21.47,0,1,1,21.46-21.46A21.46,21.46,0,0,1,45.12,133.25Zm55.44,4.47a12.52,12.52,0,1,1,12.52-12.52A12.52,12.52,0,0,1,100.56,137.72Z"/></g></g></svg>