<svg xmlns="http://www.w3.org/2000/svg" viewBox="0 0 25.49 30.59"><defs><style>.cls-1{fill:#fff;}</style></defs><g id="Capa_2" data-name="Capa 2"><g id="Layer_1" data-name="Layer 1"><path class="cls-1" d="M15.29,8.92V.59a8.91,8.91,0,0,1,3.15,2l4.44,4.45a8.78,8.78,0,0,1,2,3.14H16.57a1.28,1.28,0,0,1-1.28-1.28Zm10.2,4.44V24.22a6.38,6.38,0,0,1-6.37,6.37H6.37A6.38,6.38,0,0,1,0,24.22V6.37A6.37,6.37,0,0,1,6.37,0h5.76l.61,0V8.92a3.83,3.83,0,0,0,3.83,3.82h8.89c0,.21,0,.42,0,.62ZM15.29,24.22A1.27,1.27,0,0,0,14,22.94H7.65a1.28,1.28,0,1,0,0,2.55H14A1.27,1.27,0,0,0,15.29,24.22Zm3.83-5.1a1.28,1.28,0,0,0-1.28-1.28H7.65a1.28,1.28,0,1,0,0,2.55H17.84A1.27,1.27,0,0,0,19.12,19.12Z"/></g></g></svg>