<svg xmlns="http://www.w3.org/2000/svg" viewBox="0 0 164.52 173.06"><defs><style>.cls-1{fill:#fff;}</style></defs><g id="Capa_2" data-name="Capa 2"><g id="Layer_1" data-name="Layer 1"><path class="cls-1" d="M129.8,86.53a43.22,43.22,0,0,1-37.44-64.9H30.59l-.3-2.54A21.64,21.64,0,0,0,8.81,0H7.21a7.21,7.21,0,0,0,0,14.42h1.6A7.21,7.21,0,0,1,16,20.79l9.92,84.37A36.07,36.07,0,0,0,61.7,137H137a7.22,7.22,0,0,0,0-14.43H61.7a21.63,21.63,0,0,1-20.34-14.42h86A36.06,36.06,0,0,0,162.81,78.5L164.52,69A43.14,43.14,0,0,1,129.8,86.53Z"/><circle class="cls-1" cx="50.48" cy="158.64" r="14.42"/><circle class="cls-1" cx="122.58" cy="158.64" r="14.42"/><path class="cls-1" d="M108.16,50.48h14.42V64.9a7.22,7.22,0,0,0,14.43,0V50.48h14.42a7.22,7.22,0,0,0,0-14.43H137V21.63a7.22,7.22,0,0,0-14.43,0V36.05H108.16a7.22,7.22,0,0,0,0,14.43Z"/></g></g></svg>