<svg xmlns="http://www.w3.org/2000/svg" viewBox="0 0 33.57 32.3"><defs><style>.cls-1{fill:#fff;}</style></defs><g id="Capa_2" data-name="Capa 2"><g id="Layer_1" data-name="Layer 1"><path class="cls-1" d="M22.79,19.7a2.1,2.1,0,0,0,3,0l6.61-6.6a4.1,4.1,0,0,0,0-5.8L25.75.69A2.1,2.1,0,0,0,22.64,3.5l.15.16,4.52,4.43H7.44A7.44,7.44,0,0,0,0,15.52v9.35A7.44,7.44,0,0,0,7.44,32.3H26.13a2.1,2.1,0,0,0,0-4.19H7.44A3.24,3.24,0,0,1,4.2,24.87V15.52a3.24,3.24,0,0,1,3.24-3.24h19.8l-4.45,4.46A2.11,2.11,0,0,0,22.79,19.7Z"/></g></g></svg>