<svg xmlns="http://www.w3.org/2000/svg" viewBox="0 0 150 150"><defs><style>.cls-1{fill:#fff;}</style></defs><g id="Capa_2" data-name="Capa 2"><g id="Layer_1" data-name="Layer 1"><path class="cls-1" d="M118.75,106.25a37.43,37.43,0,0,1-18.75-5,37.43,37.43,0,0,1-18.75,5H68.75A37.12,37.12,0,0,1,50,101.14a37.12,37.12,0,0,1-18.75,5.11H25a37.21,37.21,0,0,1-18.75-5.08v30.08A18.74,18.74,0,0,0,25,150H125a18.74,18.74,0,0,0,18.75-18.75V101.17A37.11,37.11,0,0,1,125,106.25Z"/><path class="cls-1" d="M106.25,0V37.5H93.75V0H56.25V37.5H43.75V0h-30L.15,61.14,0,68.75a25,25,0,0,0,25,25h6.25A24.8,24.8,0,0,0,50,85.11a24.8,24.8,0,0,0,18.75,8.64h12.5A25,25,0,0,0,100,85.27a25,25,0,0,0,18.75,8.48H125a25,25,0,0,0,25-25V62.5L136.25,0Z"/></g></g></svg>