<svg xmlns="http://www.w3.org/2000/svg" viewBox="0 0 169.85 170.22"><defs><style>.cls-1{fill:#fff;}</style></defs><g id="Capa_2" data-name="Capa 2"><g id="Layer_1" data-name="Layer 1"><path class="cls-1" d="M141.22,51.75a11,11,0,0,0-13.82,1.08A57.82,57.82,0,0,1,99.06,63.88a7.09,7.09,0,0,1-6.91-7.05V49.49a42.36,42.36,0,0,0,42.46-40A8.31,8.31,0,0,0,127.38.2a7.74,7.74,0,0,0-2,0C112.2.74,92.86,11,88.84,26.42A61.85,61.85,0,0,0,75.93,2.05,7.09,7.09,0,0,0,65.81,12,53.47,53.47,0,0,1,77.62,42.65H60.26A62.17,62.17,0,0,0,0,106.44c-1.14,39.68,40,76.34,76.19,59.42a17,17,0,0,1,18.46.14,31.61,31.61,0,0,0,15.2,4.22C171.62,169.67,191.82,84.28,141.22,51.75Z"/></g></g></svg>