<svg xmlns="http://www.w3.org/2000/svg" viewBox="0 0 128.29 128.56"><defs><style>.cls-1{fill:#2c7fc2;}</style></defs><g id="Capa_2" data-name="Capa 2"><g id="Layer_1" data-name="Layer 1"><path class="cls-1" d="M106.66,39.09a8.28,8.28,0,0,0-10.43.81,43.84,43.84,0,0,1-21.41,8.35,5.37,5.37,0,0,1-5.22-5.33V37.38A32,32,0,0,0,101.67,7.15a6.27,6.27,0,0,0-5.46-7,6.61,6.61,0,0,0-1.54,0C84.74.56,70.14,8.28,67.1,20a46.68,46.68,0,0,0-9.75-18.4A5.35,5.35,0,0,0,49.71,9a40.38,40.38,0,0,1,8.91,23.18H45.52A46.94,46.94,0,0,0,0,80.39c-.86,30,30.21,57.67,57.54,44.88a12.85,12.85,0,0,1,13.94.1A23.8,23.8,0,0,0,83,128.56C129.62,128.15,144.88,63.66,106.66,39.09Z"/></g></g></svg>