<svg xmlns="http://www.w3.org/2000/svg" viewBox="0 0 29.84 30.59"><defs><style>.cls-1{fill:#fff;}</style></defs><g id="Capa_2" data-name="Capa 2"><g id="Layer_1" data-name="Layer 1"><path class="cls-1" d="M29,5.2A3.84,3.84,0,0,0,26,3.82H5.41l-.06-.44A3.81,3.81,0,0,0,1.56,0H1.27a1.28,1.28,0,0,0,0,2.55h.29A1.27,1.27,0,0,1,2.82,3.67L4.58,18.59a6.36,6.36,0,0,0,6.33,5.63H24.22a1.28,1.28,0,0,0,0-2.55H10.91a3.84,3.84,0,0,1-3.6-2.55H22.5a6.38,6.38,0,0,0,6.28-5.24l1-5.55A3.84,3.84,0,0,0,29,5.2Z"/><circle class="cls-1" cx="8.92" cy="28.04" r="2.55"/><circle class="cls-1" cx="21.67" cy="28.04" r="2.55"/></g></g></svg>